name rise30.6535peak61.5555fall82.9339.mot
datacolumns 19
datarows 14
range 15.90493800000000 15.92660700000000
endheader
time	ground_force1_vx	ground_force1_vy	ground_force1_vz	ground_force1_px	ground_force1_py	ground_force1_pz	ground_force2_vx	ground_force2_vy	ground_force2_vz	ground_force2_px	ground_force2_py	ground_force2_pz	ground_torque1_x	ground_torque1_y	ground_torque1_z	ground_torque2_x	ground_torque2_y	ground_torque2_z	
15.90493800000000	-8.90382100000000	42.76758500000000	-10.72844300000000	0.34431200000000	0.00000000000000	0.09898800000000	-54.63213600000000	841.95767300000000	-55.93739300000000	0.16619400000000	0.00000000000000	-0.08767800000000	0.00000000000000	-7.31497300000000	0.00000000000000	0.00000000000000	-27.33239200000000	0.00000000000000	
15.90660500000000	-9.83139100000000	50.13646300000000	-12.10168400000000	0.34837500000000	0.00000000000000	0.09986600000000	-55.71160800000000	839.91014500000006	-55.75031200000000	0.16501600000000	0.00000000000000	-0.08761300000000	0.00000000000000	-8.32457700000000	0.00000000000000	0.00000000000000	-27.31771900000000	0.00000000000000	
15.90826700000000	-10.60783700000000	57.59876200000000	-13.36220500000000	0.35211300000000	0.00000000000000	0.10067400000000	-56.79696500000000	837.65423799999996	-55.54092300000000	0.16384000000000	0.00000000000000	-0.08754600000000	0.00000000000000	-9.27219200000000	0.00000000000000	0.00000000000000	-27.29998300000000	0.00000000000000	
15.90993200000000	-11.20880400000000	65.05771200000000	-14.48131900000000	0.35557900000000	0.00000000000000	0.10142100000000	-57.88675100000000	835.18540099999996	-55.30894300000000	0.16266800000000	0.00000000000000	-0.08747700000000	0.00000000000000	-10.13705300000000	0.00000000000000	0.00000000000000	-27.27903100000000	0.00000000000000	
15.91160300000000	-11.61926900000000	72.43980300000000	-15.43956300000000	0.35881600000000	0.00000000000000	0.10211700000000	-58.97940000000000	832.49916900000005	-55.05411100000000	0.16149900000000	0.00000000000000	-0.08740600000000	0.00000000000000	-10.90446600000000	0.00000000000000	0.00000000000000	-27.25469700000000	0.00000000000000	
15.91327200000000	-11.83347800000000	79.69705900000000	-16.22687800000000	0.36185800000000	0.00000000000000	0.10276800000000	-60.07323900000000	829.59117800000001	-54.77619100000000	0.16033600000000	0.00000000000000	-0.08733200000000	0.00000000000000	-11.56605500000000	0.00000000000000	0.00000000000000	-27.22679800000000	0.00000000000000	
15.91493800000000	-11.85413000000000	86.80683999999999	-16.84199100000000	0.36473200000000	0.00000000000000	0.10338200000000	-61.16648900000000	826.45718299999999	-54.47497400000000	0.15917700000000	0.00000000000000	-0.08725500000000	0.00000000000000	-12.11945500000000	0.00000000000000	0.00000000000000	-27.19513400000000	0.00000000000000	
15.91660100000000	-11.69102100000000	93.76958700000000	-17.29117500000000	0.36746100000000	0.00000000000000	0.10396100000000	-62.25726800000000	823.09307500000000	-54.15027900000000	0.15802500000000	0.00000000000000	-0.08717600000000	0.00000000000000	-12.56756500000000	0.00000000000000	0.00000000000000	-27.15949100000000	0.00000000000000	
15.91828600000000	-11.35933100000000	100.60506100000001	-17.58662000000000	0.37006300000000	0.00000000000000	0.10451100000000	-63.34359400000000	819.49489800000003	-53.80195400000000	0.15687900000000	0.00000000000000	-0.08709500000000	0.00000000000000	-12.91749300000000	0.00000000000000	0.00000000000000	-27.11964000000000	0.00000000000000	
15.91993200000000	-10.87778100000000	107.34764500000000	-17.74458800000000	0.37255300000000	0.00000000000000	0.10503500000000	-64.42338900000000	815.65887099999998	-53.42987900000000	0.15574100000000	0.00000000000000	-0.08701000000000	0.00000000000000	-13.17934200000000	0.00000000000000	0.00000000000000	-27.07533900000000	0.00000000000000	
15.92160700000000	-10.26681400000000	114.04126900000000	-17.78357300000000	0.37494500000000	0.00000000000000	0.10553500000000	-65.49448200000000	811.58140500000002	-53.03396600000000	0.15461100000000	0.00000000000000	-0.08692400000000	0.00000000000000	-13.36495700000000	0.00000000000000	0.00000000000000	-27.02632900000000	0.00000000000000	
15.92326600000000	-9.54695600000000	120.73443100000000	-17.72258400000000	0.37725000000000	0.00000000000000	0.10601400000000	-66.55461500000000	807.25912600000004	-52.61416000000000	0.15349100000000	0.00000000000000	-0.08683400000000	0.00000000000000	-13.48675200000000	0.00000000000000	0.00000000000000	-26.97234000000000	0.00000000000000	
15.92493100000000	-8.73745500000000	127.47569400000000	-17.57969700000000	0.37947500000000	0.00000000000000	0.10647300000000	-67.60144600000000	802.68889600000000	-52.17044400000000	0.15238000000000	0.00000000000000	-0.08674200000000	0.00000000000000	-13.55668100000000	0.00000000000000	0.00000000000000	-26.91309100000000	0.00000000000000	
15.92660700000000	-7.85524900000000	134.30993900000001	-17.37092000000000	0.38162900000000	0.00000000000000	0.10691600000000	-68.63255900000000	797.86783100000002	-51.70283700000000	0.15128000000000	0.00000000000000	-0.08664600000000	0.00000000000000	-13.58543200000000	0.00000000000000	0.00000000000000	-26.84828800000000	0.00000000000000	
